<?xml version="1.0" encoding="utf-8"?>
<!-- Generator: Adobe Illustrator 27.5.0, SVG Export Plug-In . SVG Version: 6.00 Build 0)  -->
<svg version="1.1" id="Calque_1" xmlns="http://www.w3.org/2000/svg" xmlns:xlink="http://www.w3.org/1999/xlink" x="0px" y="0px"
	 viewBox="0 0 30 30" style="enable-background:new 0 0 30 30;" xml:space="preserve">
<style type="text/css">
	.st0{clip-path:url(#SVGID_00000173131423236046641450000005741749642221399966_);}
	.st1{fill:#0F0F0F;}
	.st2{fill:none;stroke:#0F0F0F;stroke-width:2;stroke-linecap:round;stroke-linejoin:round;}
</style>
<g id="Groupe_21" transform="translate(0 0)">
	<g>
		<defs>
			<rect id="SVGID_1_" x="-0.32" y="0.02" width="30.32" height="30.32"/>
		</defs>
		<clipPath id="SVGID_00000014626579803358754260000004997278014188183735_">
			<use xlink:href="#SVGID_1_"  style="overflow:visible;"/>
		</clipPath>
		<g id="Groupe_20" style="clip-path:url(#SVGID_00000014626579803358754260000004997278014188183735_);">
			<path id="Tracé_45" class="st1" d="M5.92,11.07c0.1-0.83,0.36-1.62,0.75-2.36C7.61,7.19,9.3,6.3,11.09,6.38
				c2.49-0.06,4.98-0.06,7.48,0c1.67-0.06,3.25,0.71,4.23,2.06c0.62,0.93,0.95,2.03,0.93,3.14c0.04,2.4,0.05,4.79,0,7.19
				c0.1,1.88-0.88,3.65-2.52,4.55c-0.83,0.44-1.75,0.66-2.68,0.66c-2.46,0.03-4.92,0.05-7.38,0c-1.81,0.09-3.52-0.81-4.48-2.34
				c-0.39-0.73-0.64-1.53-0.75-2.36V11.07z M14.84,8.07c-1.22,0-2.44-0.02-3.67,0.01c-1.64-0.16-3.13,0.96-3.43,2.58
				c-0.08,0.35-0.12,0.7-0.13,1.06c-0.01,2.31-0.04,4.63,0,6.94s1.21,3.53,3.43,3.61c2.51,0.09,5.02,0.08,7.53,0
				c1.59,0.12,3.01-0.98,3.3-2.55c0.07-0.28,0.11-0.58,0.12-0.87c0.01-2.64,0.16-5.28-0.08-7.91c-0.09-1.48-1.26-2.68-2.74-2.79
				C17.74,8.04,16.28,8.01,14.84,8.07"/>
			<path id="Tracé_46" class="st1" d="M19.44,15.21c0,2.55-2.07,4.62-4.62,4.63s-4.62-2.07-4.63-4.62c0-2.55,2.07-4.62,4.62-4.63
				c0.01,0,0.02,0,0.03,0C17.39,10.61,19.43,12.67,19.44,15.21 M17.73,15.19c0.02-1.61-1.27-2.93-2.87-2.95
				c-1.61-0.02-2.93,1.27-2.95,2.87c-0.02,1.61,1.27,2.93,2.87,2.95c0.01,0,0.02,0,0.03,0C16.41,18.06,17.71,16.78,17.73,15.19"/>
			<path id="Tracé_47" class="st1" d="M19.57,9.38c0.61,0.01,1.09,0.51,1.08,1.12c-0.01,0.61-0.51,1.09-1.12,1.08
				c-0.59-0.01-1.07-0.49-1.08-1.09C18.45,9.88,18.95,9.38,19.57,9.38"/>
			<path id="Rectangle_26" class="st2" d="M5.96,1.02h17.76c2.92,0,5.28,2.36,5.28,5.28v17.76c0,2.92-2.36,5.28-5.28,5.28H5.96
				c-2.92,0-5.28-2.36-5.28-5.28V6.29C0.68,3.38,3.04,1.02,5.96,1.02z"/>
		</g>
	</g>
</g>
</svg>
